<?xml version="1.0" encoding="UTF-8" standalone="no"?>
<!DOCTYPE svg PUBLIC "-//W3C//DTD SVG 1.1//EN"
 "http://www.w3.org/Graphics/SVG/1.1/DTD/svg11.dtd">
<!-- Generated by graphviz version 12.2.1 (20241206.2353)
 -->
<!-- Title: G Pages: 1 -->
<svg width="2301pt" height="2890pt"
 viewBox="0.00 0.00 552.14 693.63" xmlns="http://www.w3.org/2000/svg" xmlns:xlink="http://www.w3.org/1999/xlink">
<g id="graph0" class="graph" transform="scale(4.16667 4.16667) rotate(0) translate(36 657.63)">
<title>G</title>
<polygon fill="white" stroke="none" points="-36,36 -36,-657.63 516.14,-657.63 516.14,36 -36,36"/>
<text text-anchor="middle" x="240.07" y="-598.63" font-family="Segoe UI" font-size="20.00" fill="#12212e">Decision Tree — Loan Approval</text>
<!-- q1 -->
<g id="node1" class="node">
<title>q1</title>
<polygon fill="#fff3e0" stroke="#fb8c00" stroke-width="1.6" points="151.32,-586.63 0,-542.71 151.32,-498.79 302.64,-542.71 151.32,-586.63"/>
<text text-anchor="middle" x="151.32" y="-539.36" font-family="Segoe UI" font-size="13.00" fill="#1a1a1a">Credit score &gt; 700?</text>
</g>
<!-- q2 -->
<g id="node2" class="node">
<title>q2</title>
<polygon fill="#fff3e0" stroke="#fb8c00" stroke-width="1.6" points="354.32,-411.79 228.5,-367.87 354.32,-323.95 480.14,-367.87 354.32,-411.79"/>
<text text-anchor="middle" x="354.32" y="-364.52" font-family="Segoe UI" font-size="13.00" fill="#1a1a1a">Income &gt; 50k?</text>
</g>
<!-- q1&#45;&gt;q2 -->
<g id="edge2" class="edge">
<title>q1&#45;&gt;q2</title>
<path fill="none" stroke="#37474f" stroke-width="1.8" d="M189.03,-509.61C223.06,-480.63 273.19,-437.95 309.32,-407.19"/>
<polygon fill="#37474f" stroke="#37474f" stroke-width="1.8" points="311.29,-409.64 316.11,-401.41 307.21,-404.85 311.29,-409.64"/>
<text text-anchor="middle" x="265.28" y="-452.34" font-family="Segoe UI" font-size="11.00">no</text>
</g>
<!-- a1 -->
<g id="node4" class="node">
<title>a1</title>
<ellipse fill="#fdecea" stroke="#e53935" stroke-width="1.6" cx="116.32" cy="-367.87" rx="62.45" ry="31.06"/>
<text text-anchor="middle" x="116.32" y="-364.52" font-family="Segoe UI" font-size="13.00" fill="#1a1a1a">Approve</text>
</g>
<!-- q1&#45;&gt;a1 -->
<g id="edge1" class="edge">
<title>q1&#45;&gt;a1</title>
<path fill="none" stroke="#37474f" stroke-width="1.8" d="M143.03,-500.75C137.51,-473.5 130.28,-437.81 124.74,-410.44"/>
<polygon fill="#37474f" stroke="#37474f" stroke-width="1.8" points="127.89,-410.13 123.01,-401.93 121.71,-411.38 127.89,-410.13"/>
<text text-anchor="middle" x="142.74" y="-452.34" font-family="Segoe UI" font-size="11.00">yes</text>
</g>
<!-- q3 -->
<g id="node3" class="node">
<title>q3</title>
<polygon fill="#fff3e0" stroke="#fb8c00" stroke-width="1.6" points="198.32,-236.95 75.5,-193.03 198.32,-149.11 321.14,-193.03 198.32,-236.95"/>
<text text-anchor="middle" x="198.32" y="-189.68" font-family="Segoe UI" font-size="13.00" fill="#1a1a1a">Has collateral?</text>
</g>
<!-- q2&#45;&gt;q3 -->
<g id="edge3" class="edge">
<title>q2&#45;&gt;q3</title>
<path fill="none" stroke="#37474f" stroke-width="1.8" d="M324.61,-333.96C299.35,-305.96 262.94,-265.63 235.7,-235.45"/>
<polygon fill="#37474f" stroke="#37474f" stroke-width="1.8" points="238.11,-233.42 229.74,-228.85 233.44,-237.64 238.11,-233.42"/>
<text text-anchor="middle" x="288.87" y="-277.5" font-family="Segoe UI" font-size="11.00">yes</text>
</g>
<!-- r1 -->
<g id="node6" class="node">
<title>r1</title>
<ellipse fill="#fdecea" stroke="#e53935" stroke-width="1.6" cx="409.32" cy="-31.06" rx="52.91" ry="31.06"/>
<text text-anchor="middle" x="409.32" y="-27.71" font-family="Segoe UI" font-size="13.00" fill="#1a1a1a">Reject</text>
</g>
<!-- q2&#45;&gt;r1 -->
<g id="edge4" class="edge">
<title>q2&#45;&gt;r1</title>
<path fill="none" stroke="#37474f" stroke-width="1.8" d="M361.06,-325.82C371.62,-261.54 391.94,-137.85 402.53,-73.4"/>
<polygon fill="#37474f" stroke="#37474f" stroke-width="1.8" points="405.6,-74.16 403.95,-64.77 399.38,-73.14 405.6,-74.16"/>
<text text-anchor="middle" x="396.33" y="-190.08" font-family="Segoe UI" font-size="11.00">no</text>
</g>
<!-- a2 -->
<g id="node5" class="node">
<title>a2</title>
<ellipse fill="#fdecea" stroke="#e53935" stroke-width="1.6" cx="198.32" cy="-31.06" rx="96.39" ry="31.06"/>
<text text-anchor="middle" x="198.32" y="-27.71" font-family="Segoe UI" font-size="13.00" fill="#1a1a1a">Approve (review)</text>
</g>
<!-- q3&#45;&gt;a2 -->
<g id="edge5" class="edge">
<title>q3&#45;&gt;a2</title>
<path fill="none" stroke="#37474f" stroke-width="1.8" d="M198.32,-148.74C198.32,-125.42 198.32,-96.78 198.32,-73.71"/>
<polygon fill="#37474f" stroke="#37474f" stroke-width="1.8" points="201.47,-73.94 198.32,-64.94 195.17,-73.94 201.47,-73.94"/>
<text text-anchor="middle" x="206.19" y="-102.66" font-family="Segoe UI" font-size="11.00">yes</text>
</g>
<!-- q3&#45;&gt;r1 -->
<g id="edge6" class="edge">
<title>q3&#45;&gt;r1</title>
<path fill="none" stroke="#37474f" stroke-width="1.8" d="M237.02,-162.69C274.2,-134.5 330.19,-92.05 368.17,-63.26"/>
<polygon fill="#37474f" stroke="#37474f" stroke-width="1.8" points="369.97,-65.84 375.24,-57.89 366.17,-60.82 369.97,-65.84"/>
<text text-anchor="middle" x="322.83" y="-102.66" font-family="Segoe UI" font-size="11.00">no</text>
</g>
</g>
</svg>
